<svg width="28" height="34" viewBox="0 0 28 34" fill="none" xmlns="http://www.w3.org/2000/svg">
<path d="M18.7337 24.1002C23.767 25.0502 27.3337 27.4835 27.3337 30.3335V33.6669H0.666992V30.3335C0.666992 27.4835 4.23366 25.0502 9.26699 24.1002L14.0003 32.0002L18.7337 24.1002ZM7.33366 10.3335H20.667V13.6668C20.667 15.435 19.9646 17.1307 18.7144 18.3809C17.4641 19.6311 15.7684 20.3335 14.0003 20.3335C12.2322 20.3335 10.5365 19.6311 9.28628 18.3809C8.03604 17.1307 7.33366 15.435 7.33366 13.6668V10.3335ZM7.33366 8.66685L8.01699 1.83352C8.05845 1.42098 8.25218 1.0387 8.56037 0.761339C8.86855 0.483975 9.26905 0.331439 9.68366 0.333517H18.3337C19.1837 0.333517 19.9003 0.983517 19.9837 1.83352L20.667 8.66685H7.33366ZM14.0003 2.00018H12.3337V3.66685H10.667V5.33352H12.3337V7.00018H14.0003V5.33352H15.667V3.66685H14.0003V2.00018Z" fill="white"/>
</svg>
