<svg width="36" height="31" viewBox="0 0 36 31" fill="none" xmlns="http://www.w3.org/2000/svg">
<path d="M25.3334 30.6667L24.8334 28.1667C24.5 28.0279 24.1878 27.8823 23.8967 27.7301C23.6056 27.5779 23.3067 27.3901 23 27.1667L20.5834 27.9167L18.9167 25.0834L20.8334 23.4167C20.7778 23.0834 20.75 22.7223 20.75 22.3334C20.75 21.9445 20.7778 21.5834 20.8334 21.2501L18.9167 19.5834L20.5834 16.7501L23 17.5001C23.3056 17.2779 23.6045 17.0906 23.8967 16.9384C24.1889 16.7862 24.5012 16.6401 24.8334 16.5001L25.3334 14.0001H28.6667L29.1667 16.5001C29.5 16.639 29.8128 16.7851 30.105 16.9384C30.3973 17.0917 30.6956 17.279 31 17.5001L33.4167 16.7501L35.0834 19.5834L33.1667 21.2501C33.2223 21.5834 33.25 21.9445 33.25 22.3334C33.25 22.7223 33.2223 23.0834 33.1667 23.4167L35.0834 25.0834L33.4167 27.9167L31 27.1667C30.6945 27.389 30.3962 27.5767 30.105 27.7301C29.8139 27.8834 29.5012 28.029 29.1667 28.1667L28.6667 30.6667H25.3334ZM27 25.6667C27.9167 25.6667 28.7017 25.3406 29.355 24.6884C30.0084 24.0362 30.3345 23.2512 30.3334 22.3334C30.3323 21.4156 30.0062 20.6312 29.355 19.9801C28.7039 19.329 27.9189 19.0023 27 19.0001C26.0812 18.9979 25.2967 19.3245 24.6467 19.9801C23.9967 20.6356 23.67 21.4201 23.6667 22.3334C23.6634 23.2467 23.99 24.0317 24.6467 24.6884C25.3034 25.3451 26.0878 25.6712 27 25.6667ZM3.66671 27.3334C2.75004 27.3334 1.9656 27.0073 1.31337 26.3551C0.661152 25.7029 0.334485 24.9179 0.333374 24.0001V4.00008C0.333374 3.08341 0.660041 2.29897 1.31337 1.64675C1.96671 0.994525 2.75115 0.667859 3.66671 0.666748H13.6667L17 4.00008H30.3334C31.25 4.00008 32.035 4.32675 32.6884 4.98008C33.3417 5.63341 33.6678 6.41786 33.6667 7.33341V12.7917C32.6945 12.0973 31.6389 11.5695 30.5 11.2084C29.3612 10.8473 28.1806 10.6667 26.9584 10.6667C23.6806 10.6667 20.9239 11.8129 18.6884 14.1051C16.4528 16.3973 15.3345 19.1262 15.3334 22.2917C15.3334 23.1806 15.4306 24.0417 15.625 24.8751C15.8195 25.7084 16.1112 26.5279 16.5 27.3334H3.66671Z" fill="white"/>
</svg>
