<svg width="32" height="34" viewBox="0 0 32 34" fill="none" xmlns="http://www.w3.org/2000/svg">
<path fill-rule="evenodd" clip-rule="evenodd" d="M5 0.333496C3.67392 0.333496 2.40215 0.86028 1.46447 1.79796C0.526784 2.73564 0 4.00741 0 5.3335V28.6668C0 29.9929 0.526784 31.2647 1.46447 32.2024C2.40215 33.14 3.67392 33.6668 5 33.6668H15C16.3261 33.6668 17.5979 33.14 18.5355 32.2024C19.4732 31.2647 20 29.9929 20 28.6668V5.3335C20 4.00741 19.4732 2.73564 18.5355 1.79796C17.5979 0.86028 16.3261 0.333496 15 0.333496H5ZM22.155 9.15516C22.4675 8.84271 22.8914 8.66719 23.3333 8.66719C23.7753 8.66719 24.1991 8.84271 24.5117 9.15516L31.1783 15.8218C31.4908 16.1344 31.6663 16.5582 31.6663 17.0002C31.6663 17.4421 31.4908 17.866 31.1783 18.1785L24.5117 24.8452C24.1973 25.1488 23.7763 25.3168 23.3393 25.313C22.9023 25.3092 22.4843 25.1339 22.1753 24.8249C21.8663 24.5158 21.691 24.0978 21.6872 23.6608C21.6834 23.2238 21.8514 22.8028 22.155 22.4885L25.9767 18.6668H11.6667C11.2246 18.6668 10.8007 18.4912 10.4882 18.1787C10.1756 17.8661 10 17.4422 10 17.0002C10 16.5581 10.1756 16.1342 10.4882 15.8217C10.8007 15.5091 11.2246 15.3335 11.6667 15.3335H25.9767L22.155 11.5118C21.8425 11.1993 21.667 10.7754 21.667 10.3335C21.667 9.89156 21.8425 9.46771 22.155 9.15516Z" fill="white"/>
</svg>
