<svg width="33" height="33" viewBox="0 0 33 33" fill="none" xmlns="http://www.w3.org/2000/svg">
<path fill-rule="evenodd" clip-rule="evenodd" d="M1.9338 2.41725C-1.96695e-07 4.83244 0 8.72231 0 16.5C0 24.2777 -1.96695e-07 28.1676 1.9338 30.5827C3.8676 32.9979 6.97785 33 13.2 33H19.8C26.0221 33 29.134 33 31.0662 30.5827C32.9983 28.1655 33 24.2777 33 16.5C33 8.72231 33 4.83244 31.0662 2.41725C29.1324 0.00206235 26.0221 0 19.8 0H13.2C6.97785 0 3.86595 -2.45869e-07 1.9338 2.41725ZM27.3504 7.26C27.5604 7.57512 27.6616 7.98157 27.6319 8.38999C27.6022 8.79841 27.444 9.17537 27.192 9.438L23.5686 13.2124C22.1051 14.7386 20.9203 15.972 19.8726 16.8135C18.7836 17.6901 17.7226 18.2428 16.5 18.2428C15.2773 18.2428 14.2164 17.688 13.1257 16.8135C12.0796 15.972 10.895 14.7366 9.4314 13.2144L5.808 9.44006C5.55572 9.1775 5.39721 8.80042 5.36735 8.39177C5.33749 7.98312 5.43872 7.57638 5.64878 7.26103C5.85883 6.94568 6.16049 6.74755 6.48741 6.71022C6.81433 6.6729 7.13972 6.79944 7.392 7.062L10.956 10.7724C12.4955 12.375 13.563 13.4846 14.4672 14.2106C15.34 14.9119 15.9324 15.1491 16.5017 15.1491C17.0709 15.1491 17.6633 14.9139 18.5361 14.2106C19.4387 13.4846 20.5079 12.375 22.0473 10.7724L25.6096 7.05994C25.862 6.79773 26.1872 6.6715 26.514 6.70902C26.8407 6.74654 27.1405 6.94472 27.3504 7.26Z" fill="white"/>
</svg>
