<svg width="34" height="34" viewBox="0 0 34 34" fill="none" xmlns="http://www.w3.org/2000/svg">
<path d="M24.0003 2.83325C22.3337 1.16659 20.167 0.333252 18.167 0.333252C16.167 0.333252 13.8337 1.16659 12.3337 2.83325L2.66699 12.1666C-0.666341 15.4999 -0.666341 20.6666 2.66699 23.9999C6.00033 27.3333 11.167 27.3333 14.5003 23.9999L24.0003 14.4999C27.167 11.3333 27.167 5.99992 24.0003 2.83325ZM21.667 12.1666L17.0003 16.8333L11.0003 10.9999L3.66699 18.3333C3.66699 16.9999 4.00033 15.4999 5.16699 14.4999L14.667 4.99992C15.5003 4.16659 16.8337 3.66659 18.0003 3.66659C19.167 3.66659 20.5003 4.16659 21.5003 4.99992C23.5003 7.16659 23.5003 10.1666 21.667 12.1666ZM29.667 8.83325C29.667 10.1666 29.3337 11.3333 29.0003 12.6666C30.667 14.6666 30.667 17.6666 28.8337 19.4999L24.167 24.1666L21.667 21.6666L17.0003 26.3333C14.8337 28.4999 11.8337 29.6666 9.00033 29.6666C9.33366 30.1666 9.66699 30.6666 10.167 31.1666C13.5003 34.4999 18.667 34.4999 22.0003 31.1666L31.5003 21.6666C34.8337 18.3333 34.8337 13.1666 31.5003 9.83325C30.667 9.49992 30.167 9.16658 29.667 8.83325Z" fill="white"/>
</svg>
