<svg width="28" height="34" viewBox="0 0 28 34" fill="none" xmlns="http://www.w3.org/2000/svg">
<path d="M7.33377 7.00016C7.33377 3.31683 10.3171 0.333496 14.0004 0.333496C17.6838 0.333496 20.6671 3.31683 20.6671 7.00016C20.6671 10.6835 17.6838 13.6668 14.0004 13.6668C10.3171 13.6668 7.33377 10.6835 7.33377 7.00016ZM22.3338 33.6668H24.0004C25.8338 33.6668 27.3338 32.1668 27.3338 30.3335V22.3668C27.3338 20.5002 26.3171 18.7835 24.6504 17.9335C23.9338 17.5668 23.1671 17.2168 22.3338 16.9002V33.6668ZM14.5671 25.3335L19.0004 15.8835C17.4504 15.5335 15.7838 15.3335 14.0004 15.3335C9.78377 15.3335 6.15043 16.5002 3.35043 17.9335C2.5372 18.3524 1.85594 18.9884 1.38227 19.771C0.908597 20.5535 0.66105 21.4521 0.667101 22.3668V33.6668H4.5671C4.20043 32.9168 4.00043 32.0668 4.00043 31.1668C4.00043 27.9502 6.6171 25.3335 9.83377 25.3335H14.5671ZM10.6671 33.6668L13.0171 28.6668H9.83377C8.45043 28.6668 7.33377 29.7835 7.33377 31.1668C7.33377 32.5502 8.45043 33.6668 9.83377 33.6668H10.6671Z" fill="white"/>
</svg>
