<svg width="53" height="66" viewBox="0 0 53 66" fill="none" xmlns="http://www.w3.org/2000/svg">
<path d="M51.5217 57.0257C51.5217 44.325 49.8635 33.7568 33.3689 31.465C32.4921 32.5881 31.3789 33.4949 30.1121 34.1182C28.8453 34.7414 27.4574 35.0651 26.0514 35.0651C24.6454 35.0651 23.2574 34.7414 21.9906 34.1182C20.7238 33.4949 19.6107 32.5881 18.7339 31.465C2.25888 33.7581 0.581055 44.3263 0.581055 57.0245" fill="#4E6CB2"/>
<path d="M51.5217 57.0257C51.5217 44.325 49.8635 33.7568 33.3689 31.465C32.4921 32.5881 31.3789 33.4949 30.1121 34.1182C28.8453 34.7414 27.4574 35.0651 26.0514 35.0651C24.6454 35.0651 23.2574 34.7414 21.9906 34.1182C20.7238 33.4949 19.6107 32.5881 18.7339 31.465C2.25888 33.7581 0.581055 44.3263 0.581055 57.0245" stroke="white" stroke-width="1.12399" stroke-linecap="round" stroke-linejoin="round"/>
<path d="M36.1666 14.0449C36.1666 21.2845 31.1454 27.6166 26.0603 27.6154C20.9752 27.6141 16.2967 21.2757 15.9528 14.0449C15.6088 6.81411 19.8084 0.935059 26.0603 0.935059C32.3123 0.935059 36.1666 6.80407 36.1666 14.0449Z" fill="#4E6CB2"/>
<path d="M36.1666 14.0449C36.1666 21.2845 31.1454 27.6166 26.0603 27.6154C20.9752 27.6141 16.2967 21.2757 15.9528 14.0449C15.6088 6.81411 19.8084 0.935059 26.0603 0.935059C32.3123 0.935059 36.1666 6.80407 36.1666 14.0449Z" stroke="white" stroke-width="1.12399" stroke-linecap="round" stroke-linejoin="round"/>
<path d="M10.2012 44.7162C8.43244 49.3213 8.48158 56.3312 8.48158 61.1584C14.0714 63.44 20.0354 64.6126 26.0546 64.6138C32.0802 64.615 38.0484 63.418 43.6265 61.0894C43.6265 56.7077 43.5896 50.3994 42.3392 46.0153" fill="#4E6CB2"/>
<path d="M10.2012 44.7162C8.43244 49.3213 8.48158 56.3312 8.48158 61.1584C14.0714 63.44 20.0354 64.6126 26.0546 64.6138C32.0802 64.615 38.0484 63.418 43.6265 61.0894C43.6265 56.7077 43.5896 50.3994 42.3392 46.0153" stroke="white" stroke-width="1.12399" stroke-linecap="round" stroke-linejoin="round"/>
<path d="M0.581055 57.0255C0.581055 57.9154 4.27573 60.0027 8.44207 60.0027L0.581055 57.0255Z" fill="#4E6CB2"/>
<path d="M0.581055 57.0255C0.581055 57.9154 4.27573 60.0027 8.44207 60.0027" stroke="white" stroke-width="1.12399" stroke-linecap="round" stroke-linejoin="round"/>
<path d="M51.5246 57.0255C51.5246 57.9154 47.8299 60.0027 43.6636 60.0027L51.5246 57.0255Z" fill="#4E6CB2"/>
<path d="M51.5246 57.0255C51.5246 57.9154 47.8299 60.0027 43.6636 60.0027" stroke="white" stroke-width="1.12399" stroke-linecap="round" stroke-linejoin="round"/>
<path d="M32.8323 47.468H28.3466V42.8843H23.743V47.468H19.2573V52.1723H23.743V56.756H28.3466V52.1723H32.8323V47.468Z" fill="#4E6CB2" stroke="white" stroke-width="1.12399" stroke-linecap="round" stroke-linejoin="round"/>
</svg>
