<svg width="34" height="34" viewBox="0 0 34 34" fill="none" xmlns="http://www.w3.org/2000/svg">
<path d="M33.1669 14.1668L18.1669 0.833496C17.5002 0.333496 16.6669 0.333496 16.0002 0.833496L1.00025 14.1668C0.333579 14.8335 0.166913 15.8335 0.833579 16.5002C1.50025 17.1668 2.50025 17.3335 3.16691 16.6668L3.66691 16.0002V32.0002C3.66691 33.0002 4.33358 33.6668 5.33358 33.6668H28.6669C29.6669 33.6668 30.3336 33.0002 30.3336 32.0002V16.0002L30.8336 16.5002C31.5002 17.1668 32.5002 17.0002 33.1669 16.3335C33.8336 15.8335 33.8336 14.6668 33.1669 14.1668ZM20.3336 22.0002H18.6669V23.6668C18.6669 24.6668 18.0002 25.3335 17.0002 25.3335C16.0002 25.3335 15.3336 24.6668 15.3336 23.6668V22.0002H13.6669C12.6669 22.0002 12.0002 21.3335 12.0002 20.3335C12.0002 19.3335 12.6669 18.6668 13.6669 18.6668H15.3336V17.0002C15.3336 16.0002 16.0002 15.3335 17.0002 15.3335C18.0002 15.3335 18.6669 16.0002 18.6669 17.0002V18.6668H20.3336C21.3336 18.6668 22.0002 19.3335 22.0002 20.3335C22.0002 21.3335 21.3336 22.0002 20.3336 22.0002Z" fill="white"/>
</svg>
