<svg width="175" height="175" viewBox="0 0 175 175" fill="none" xmlns="http://www.w3.org/2000/svg">
<path d="M14.5835 36.4583C14.5835 32.5906 16.1199 28.8813 18.8549 26.1464C21.5898 23.4115 25.2991 21.875 29.1668 21.875H145.833C149.701 21.875 153.411 23.4115 156.145 26.1464C158.88 28.8813 160.417 32.5906 160.417 36.4583C160.417 40.3261 158.88 44.0354 156.145 46.7703C153.411 49.5052 149.701 51.0417 145.833 51.0417H29.1668C25.2991 51.0417 21.5898 49.5052 18.8549 46.7703C16.1199 44.0354 14.5835 40.3261 14.5835 36.4583ZM138.542 65.625C142.282 65.625 145.367 69.001 145.782 73.3542L145.833 74.375V126.875C145.833 140.853 136.726 152.279 125.242 153.081L123.958 153.125H51.0418C39.3897 153.125 29.8668 142.195 29.2033 128.421L29.1668 126.875V74.375C29.1668 69.5406 32.4335 65.625 36.4585 65.625H138.542ZM102.083 80.2083H72.9168L72.0637 80.2594C70.2915 80.4702 68.6581 81.3236 67.473 82.6581C66.2878 83.9925 65.6333 85.7153 65.6333 87.5C65.6333 89.2847 66.2878 91.0075 67.473 92.3419C68.6581 93.6764 70.2915 94.5298 72.0637 94.7406L72.9168 94.7917H102.083L102.937 94.7406C104.709 94.5298 106.342 93.6764 107.527 92.3419C108.712 91.0075 109.367 89.2847 109.367 87.5C109.367 85.7153 108.712 83.9925 107.527 82.6581C106.342 81.3236 104.709 80.4702 102.937 80.2594L102.083 80.2083Z" fill="black"/>
</svg>
