<svg width="214" height="214" viewBox="0 0 214 214" fill="none" xmlns="http://www.w3.org/2000/svg">
<path d="M187.25 175.213V160.5H61.525L69.55 145.787L192.6 133.75L214 53.5H49.4875L40.125 13.375H0V26.75H29.425L57.5125 139.1L40.125 173.875V193.938C40.125 204.638 49.4875 214 60.1875 214C70.8875 214 80.25 204.638 80.25 193.938C80.25 183.237 70.8875 173.875 60.1875 173.875H160.5V193.938C160.5 204.638 169.862 214 180.562 214C191.263 214 200.625 204.638 200.625 193.938C200.625 184.575 195.275 177.888 187.25 175.213Z" fill="black"/>
</svg>
